<svg width="300" height="300" viewBox="0 0 300 300" fill="none" xmlns="http://www.w3.org/2000/svg">
<rect width="300" height="300" fill="#16161D"/>
<g clip-path="url(#clip0)">
<path d="M46 91.4V65H255V91.4H46ZM133.7 162.7L115 144.1L49.2 209.9L67.8 228.5L133.7 162.7ZM202.3 144.1V117.7H46V144.1H202.3Z" fill="white"/>
<path d="M190.5 234.9C154.9 234.9 126 206 126 170.4H152.4C152.4 191.5 169.5 208.6 190.6 208.6C211.7 208.6 228.8 191.5 228.8 170.4H255.2C255 206 226.1 234.9 190.5 234.9ZM255 144.1V117.7H228.6V144.1H255Z" fill="#0070F3"/>
</g>
<defs>
<clipPath id="clip0">
<rect width="209" height="169.9" fill="white" transform="translate(46 65)"/>
</clipPath>
</defs>
</svg>
