<?xml version="1.0" standalone="no"?>
<!DOCTYPE svg PUBLIC "-//W3C//DTD SVG 20010904//EN"
 "http://www.w3.org/TR/2001/REC-SVG-20010904/DTD/svg10.dtd">
<svg version="1.0" xmlns="http://www.w3.org/2000/svg"
 width="836.000000pt" height="836.000000pt" viewBox="0 0 836.000000 836.000000"
 preserveAspectRatio="xMidYMid meet">
<metadata>
Created by potrace 1.11, written by Peter Selinger 2001-2013
</metadata>
<g transform="translate(0.000000,836.000000) scale(0.100000,-0.100000)"
fill="#000000" stroke="none">
<path d="M10 7042 l0 -527 4173 0 4172 0 3 528 2 527 -4175 0 -4175 0 0 -528z"/>
<path d="M14 5461 c-2 -2 -4 -240 -4 -528 0 -491 1 -523 18 -523 9 -1 626 -1
1370 -1 743 0 1352 -4 1352 -8 0 -5 -588 -596 -1306 -1315 l-1307 -1307 364
-364 c200 -200 370 -365 376 -367 7 -2 532 516 1167 1149 634 634 1156 1153
1159 1153 2 0 5 -34 6 -76 2 -92 8 -165 22 -264 6 -41 13 -91 16 -110 2 -19
11 -62 20 -95 8 -33 16 -67 18 -75 9 -43 40 -156 55 -195 5 -11 18 -47 30 -80
38 -105 133 -305 182 -389 69 -115 200 -302 227 -326 4 -3 20 -23 36 -45 29
-39 240 -253 283 -288 13 -9 55 -43 95 -75 82 -66 231 -167 297 -203 25 -13
47 -26 50 -29 16 -16 293 -143 340 -155 14 -4 39 -13 55 -20 28 -13 160 -53
195 -60 8 -2 15 -4 15 -5 0 -2 16 -5 58 -13 15 -3 35 -8 45 -11 9 -3 33 -7 52
-10 19 -3 46 -8 60 -11 14 -3 45 -8 70 -11 25 -3 70 -8 100 -11 80 -10 432 -9
520 0 224 24 465 83 670 164 102 40 300 136 363 176 31 20 59 37 62 37 3 0 37
23 77 51 40 28 90 62 111 76 20 14 37 30 37 34 0 5 6 9 14 9 8 0 16 3 18 8 2
4 30 30 62 57 117 99 278 269 360 380 17 22 33 42 37 45 3 3 36 50 71 105 88
137 105 165 124 204 8 18 26 51 40 72 13 22 22 39 19 39 -3 0 5 19 17 43 12
23 23 45 24 50 1 4 3 10 4 15 1 4 2 10 1 15 0 4 3 7 8 7 5 0 11 10 14 23 3 12
22 67 42 122 29 81 74 245 90 325 1 8 5 31 9 50 3 19 8 46 11 60 13 60 18 134
19 260 l1 135 -521 1 -521 1 -2 -61 c-1 -34 -4 -77 -6 -96 -3 -19 -7 -57 -10
-83 -3 -27 -7 -53 -10 -58 -3 -5 -7 -21 -9 -36 -5 -34 -43 -161 -57 -185 -5
-10 -9 -23 -9 -30 0 -19 -86 -194 -99 -202 -6 -4 -11 -16 -11 -26 0 -10 -3
-20 -8 -22 -4 -1 -24 -29 -45 -61 -40 -62 -61 -87 -142 -176 -46 -50 -68 -71
-144 -139 -47 -42 -231 -161 -281 -183 -28 -12 -50 -26 -50 -32 0 -6 -3 -8 -6
-4 -4 3 -18 0 -33 -7 -61 -30 -246 -87 -326 -100 -108 -17 -144 -20 -270 -20
-146 0 -214 6 -330 30 -121 26 -315 97 -400 147 -99 58 -160 99 -220 146 -96
76 -235 217 -277 282 -9 14 -23 32 -30 40 -28 29 -108 172 -146 259 -11 25
-26 61 -35 80 -8 19 -18 51 -22 70 -4 19 -10 40 -13 45 -4 6 -8 19 -10 30 -5
29 -10 50 -12 50 -9 0 -36 220 -39 316 l-1 26 -515 0 c-284 0 -518 3 -522 7
-4 3 60 72 141 152 127 126 145 148 134 162 -7 9 -175 177 -373 374 l-360 357
1739 0 c956 0 1741 2 1744 6 11 11 8 1045 -3 1046 -30 4 -6227 3 -6231 0z"/>
<path d="M7309 5460 c-5 -22 -2 -1043 3 -1046 5 -4 821 -7 1011 -4 l37 0 -2
528 -3 527 -522 0 c-288 0 -524 -2 -524 -5z"/>
</g>
</svg>
